<?xml version="1.0" standalone="no"?><!DOCTYPE svg PUBLIC "-//W3C//DTD SVG 1.1//EN" "http://www.w3.org/Graphics/SVG/1.1/DTD/svg11.dtd"><svg t="1764216407171" class="icon" viewBox="0 0 1024 1024" version="1.1" xmlns="http://www.w3.org/2000/svg" p-id="1305" xmlns:xlink="http://www.w3.org/1999/xlink" width="200" height="200"><path d="M473.6 665.6v102.4a25.6 25.6 0 0 0 25.6 25.6h25.6a25.6 25.6 0 0 0 25.6-25.6v-102.4a25.6 25.6 0 0 0-25.6-25.6h-25.6a25.6 25.6 0 0 0-25.6 25.6z" fill="#CF4C4D" p-id="1306"></path><path d="M512 76.8a204.8 204.8 0 1 1 0 409.6 204.8 204.8 0 0 1 0-409.6zM512 153.6a128 128 0 1 0 0 256 128 128 0 0 0 0-256zM716.8 512a204.8 204.8 0 0 1 204.8 204.8v102.4a102.4 102.4 0 0 1-102.4 102.4H204.8a102.4 102.4 0 0 1-102.4-102.4v-102.4a204.8 204.8 0 0 1 204.8-204.8h409.6z m0 76.8H307.2A128 128 0 0 0 179.2 716.8v102.4a25.6 25.6 0 0 0 25.6 25.6h614.4a25.6 25.6 0 0 0 25.6-25.6v-102.4a128 128 0 0 0-128-128z" fill="#222222" p-id="1307"></path></svg>