<?xml version="1.0" standalone="no"?><!DOCTYPE svg PUBLIC "-//W3C//DTD SVG 1.1//EN" "http://www.w3.org/Graphics/SVG/1.1/DTD/svg11.dtd"><svg t="1764216433857" class="icon" viewBox="0 0 1024 1024" version="1.1" xmlns="http://www.w3.org/2000/svg" p-id="1460" xmlns:xlink="http://www.w3.org/1999/xlink" width="200" height="200"><path d="M896 793.6a102.4 102.4 0 0 1-102.4 102.4h-563.2a102.4 102.4 0 0 1-102.4-102.4v-460.8l112.9472-180.736a51.2 51.2 0 0 1 43.4176-24.064h455.2704a51.2 51.2 0 0 1 43.4176 24.064L896 332.8v460.8zM819.2 409.6H204.8v384a25.6 25.6 0 0 0 20.992 25.1904L230.4 819.2h563.2a25.6 25.6 0 0 0 25.6-25.6V409.6z m-93.7984-204.8512L298.496 204.8 218.4704 332.8h587.008l-80.0768-128.0512z" fill="#222222" p-id="1461"></path><path d="M422.4 563.2h179.2a25.6 25.6 0 0 0 25.6-25.6V512a25.6 25.6 0 0 0-25.6-25.6h-179.2a25.6 25.6 0 0 0-25.6 25.6v25.6a25.6 25.6 0 0 0 25.6 25.6z" fill="#CF4C4D" p-id="1462"></path></svg>