<?xml version="1.0" standalone="no"?><!DOCTYPE svg PUBLIC "-//W3C//DTD SVG 1.1//EN" "http://www.w3.org/Graphics/SVG/1.1/DTD/svg11.dtd"><svg t="1764216299068" class="icon" viewBox="0 0 1024 1024" version="1.1" xmlns="http://www.w3.org/2000/svg" p-id="1307" xmlns:xlink="http://www.w3.org/1999/xlink" width="200" height="200"><path d="M873.8816 202.9568a256 256 0 0 1 0 362.0864l-289.6384 289.5872a102.4 102.4 0 0 1-144.8448 0l-289.5872-289.5872a256 256 0 1 1 361.984-362.0864l8.0384-7.68a256 256 0 0 1 354.048 7.68z m-54.3232 54.3232c-67.9424-67.9424-177.3056-70.144-246.5792-6.5536l-8.0384 7.68-54.272 52.0192-53.1456-53.1456a179.2 179.2 0 1 0-253.44 253.44l289.6384 289.6384a25.6 25.6 0 0 0 36.1984 0l289.6384-289.6384a179.2 179.2 0 0 0 0-253.44z" fill="#222222" p-id="1308"></path><path d="M652.8 268.8v25.6a25.6 25.6 0 0 0 25.6 25.6h12.8c35.328 0 64 28.672 64 64v12.8a25.6 25.6 0 0 0 25.6 25.6h25.6a25.6 25.6 0 0 0 25.6-25.6V384a140.8 140.8 0 0 0-140.8-140.8h-12.8a25.6 25.6 0 0 0-25.6 25.6z" fill="#CF4C4D" p-id="1309"></path></svg>