<?xml version="1.0" standalone="no"?><!DOCTYPE svg PUBLIC "-//W3C//DTD SVG 1.1//EN" "http://www.w3.org/Graphics/SVG/1.1/DTD/svg11.dtd"><svg t="1764216399109" class="icon" viewBox="0 0 1024 1024" version="1.1" xmlns="http://www.w3.org/2000/svg" p-id="1150" xmlns:xlink="http://www.w3.org/1999/xlink" width="200" height="200"><path d="M367.2064 153.6a102.4 102.4 0 0 1 72.3968 30.0032L512 256h281.6a102.4 102.4 0 0 1 102.4 102.4v409.6a102.4 102.4 0 0 1-102.4 102.4h-563.2a102.4 102.4 0 0 1-102.4-102.4V256a102.4 102.4 0 0 1 102.4-102.4h136.8064z m0 76.8H230.4A25.6 25.6 0 0 0 204.8 256v512a25.6 25.6 0 0 0 25.6 25.6h563.2a25.6 25.6 0 0 0 25.6-25.6V358.4a25.6 25.6 0 0 0-25.6-25.6H512a76.8 76.8 0 0 1-54.272-22.528L385.2288 237.9264a25.6 25.6 0 0 0-18.0736-7.4752z" fill="#222222" p-id="1151"></path><path d="M332.8 704h358.4a25.6 25.6 0 0 0 25.6-25.6v-25.6a25.6 25.6 0 0 0-25.6-25.6h-358.4a25.6 25.6 0 0 0-25.6 25.6v25.6a25.6 25.6 0 0 0 25.6 25.6z" fill="#CF4C4D" p-id="1152"></path></svg>