<?xml version="1.0" standalone="no"?><!DOCTYPE svg PUBLIC "-//W3C//DTD SVG 1.1//EN" "http://www.w3.org/Graphics/SVG/1.1/DTD/svg11.dtd"><svg t="1764216079460" class="icon" viewBox="0 0 1024 1024" version="1.1" xmlns="http://www.w3.org/2000/svg" p-id="1150" xmlns:xlink="http://www.w3.org/1999/xlink" width="200" height="200"><path d="M568.832 140.288l281.6 187.6992a102.4 102.4 0 0 1 45.568 85.1968V819.2a102.4 102.4 0 0 1-102.4 102.4h-563.2a102.4 102.4 0 0 1-102.4-102.4V413.184a102.4 102.4 0 0 1 45.568-85.1968l281.6-187.6992a102.4 102.4 0 0 1 113.664 0zM497.7664 204.1856l-281.6 187.6992A25.6 25.6 0 0 0 204.8 413.184V819.2a25.6 25.6 0 0 0 25.6 25.6h563.2a25.6 25.6 0 0 0 25.6-25.6V413.184a25.6 25.6 0 0 0-11.4176-21.2992l-281.6-187.6992a25.6 25.6 0 0 0-28.3648 0z" fill="#222222" p-id="1151"></path><path d="M550.4 537.6v204.8a25.6 25.6 0 0 1-25.6 25.6h-25.6a25.6 25.6 0 0 1-25.6-25.6v-204.8a25.6 25.6 0 0 1 25.6-25.6h25.6a25.6 25.6 0 0 1 25.6 25.6z" fill="#CF4C4D" p-id="1152"></path></svg>